<svg width="108" height="108" viewBox="0 0 108 108" fill="none" xmlns="http://www.w3.org/2000/svg">
<circle cx="54" cy="54" r="53.5" fill="#D9D9D9" stroke="black"/>
<path d="M24.6476 83.16C18.2268 83.811 17.3338 92.4924 18.3922 95.7961L15.0238 97.7396C13.3951 92.5128 14.5427 79.272 24.1664 79.272C33.7901 79.272 38.602 85.104 39.0833 92.394C39.5645 99.684 35.8155 102.6 28.9783 102.6C22.1412 102.6 19.2895 96.1167 19.3546 92.8364C19.4197 89.5561 21.2793 85.104 25.61 85.104C29.9407 85.104 32.8278 89.8262 32.8278 91.422L29.9407 92.8364C29.9407 91.908 28.0159 89.0094 26.0912 88.992C24.1664 88.9747 23.2041 91.422 23.2041 92.8364C23.2041 94.2508 23.8139 99.248 29.359 99.198C34.9041 99.148 35.2769 96.8999 35.2338 92.8364C35.1906 88.7729 31.0684 82.5091 24.6476 83.16Z" fill="#D9D9D9"/>
<path d="M29.4595 97.7396C32.5391 97.7396 33.309 95.1476 33.309 93.8516L29.4595 94.8236C28.9783 92.8796 27.5347 90.9356 26.5724 90.9356C25.61 90.9356 25.0529 91.9076 25.0529 92.8364C25.0529 93.7652 25.61 97.7396 29.4595 97.7396Z" fill="#D9D9D9"/>
<path d="M51.0789 48.654L96.3446 26.784L51.0789 5.40002L5.40002 26.784L27.7044 37.476L45.2463 27.756C44.9223 27.108 45.0519 25.4232 48.1626 23.868C52.051 21.924 54.4812 24.354 55.4533 25.326C56.4254 26.298 55.9394 28.242 53.9952 29.7C52.4398 30.8664 49.7827 30.186 48.6486 29.7L31.6369 39.3566L51.0789 48.654Z" fill="#D9D9D9"/>
<path d="M32.123 43.308L34.0672 61.776C36.9835 63.072 44.5658 65.664 51.5649 65.664C60.3138 65.664 79.2697 58.86 79.2697 51.084V38.934L51.0789 51.57L32.123 43.308Z" fill="#D9D9D9"/>
<path d="M26.2904 40.392L24.3462 54.486C23.6981 53.838 22.402 52.2504 22.402 51.084V38.934L26.2904 40.392Z" fill="#D9D9D9"/>
<path d="M28.7206 42.822L25.3183 67.122C25.6423 67.77 26.7764 69.066 28.7206 69.066C30.6648 69.066 31.7989 68.094 32.123 67.608L28.7206 42.822Z" fill="#D9D9D9"/>
<path d="M31.1509 77.814C34.0672 79.11 40.1914 83.4516 41.3579 90.45C42.5244 97.4484 39.8998 100.818 38.4416 101.628L62.744 92.88L66.1464 84.618C65.4983 82.836 65.0771 78.8832 68.5766 77.328C67.0213 72.6624 62.42 72.144 60.3138 72.468L31.1509 77.814Z" fill="#D9D9D9"/>
<path d="M71.0069 78.786C70.1968 78.786 68.5766 79.4664 68.5766 82.188C68.5766 84.9096 70.1968 85.59 71.0069 85.59C71.8169 85.59 73.4371 84.9096 73.4371 82.188C73.4371 79.4664 71.8169 78.786 71.0069 78.786Z" fill="#D9D9D9"/>
<path d="M68.0906 86.562C68.7386 87.048 70.2292 88.02 71.0069 88.02L70.0348 95.796L67.6045 94.338L63.7161 96.282L68.0906 86.562Z" fill="#D9D9D9"/>
<path d="M72.465 87.534C73.1131 87.048 74.5064 85.9788 74.8953 85.59L79.2697 92.394L76.8394 91.908L74.8953 94.824L72.465 87.534Z" fill="#D9D9D9"/>
<path d="M66.1464 71.01C67.4425 71.496 70.3264 73.2456 71.4929 76.356C73.1131 76.842 76.2562 79.0776 75.8673 84.132L78.7836 88.02L97.7395 83.646C99.3597 82.836 102.6 79.8552 102.6 74.412C102.6 67.608 97.2535 63.234 93.8511 63.234C91.1293 63.234 74.2472 68.418 66.1464 71.01Z" fill="#D9D9D9"/>
<path d="M22.402 51.084C22.402 52.2504 23.6981 53.838 24.3462 54.486L26.2904 40.392L22.402 38.934M22.402 51.084C22.402 49.9176 22.402 42.498 22.402 38.934M22.402 51.084V38.934M79.2697 51.084C79.2697 58.86 60.3138 65.664 51.5649 65.664C44.5658 65.664 36.9835 63.072 34.0672 61.776L32.123 43.308L51.0789 51.57L79.2697 38.934M79.2697 51.084C79.2697 44.8632 79.2697 40.392 79.2697 38.934M79.2697 51.084V38.934M31.1509 77.814C34.0672 79.11 40.1914 83.4516 41.3579 90.45C42.5244 97.4484 39.8998 100.818 38.4416 101.628L62.744 92.88L66.1464 84.618C65.4983 82.836 65.0771 78.8832 68.5766 77.328C67.0213 72.6624 62.42 72.144 60.3138 72.468L31.1509 77.814ZM66.1464 71.01C67.4425 71.496 70.3264 73.2456 71.4929 76.356C73.1131 76.842 76.2562 79.0776 75.8673 84.132L78.7836 88.02L97.7395 83.646C99.3597 82.836 102.6 79.8552 102.6 74.412C102.6 67.608 97.2535 63.234 93.8511 63.234C91.1293 63.234 74.2472 68.418 66.1464 71.01ZM71.0069 78.786C70.1968 78.786 68.5766 79.4664 68.5766 82.188C68.5766 84.9096 70.1968 85.59 71.0069 85.59C71.8169 85.59 73.4371 84.9096 73.4371 82.188C73.4371 79.4664 71.8169 78.786 71.0069 78.786ZM68.0906 86.562C68.7386 87.048 70.2292 88.02 71.0069 88.02L70.0348 95.796L67.6045 94.338L63.7161 96.282L68.0906 86.562ZM72.465 87.534C73.1131 87.048 74.5064 85.9788 74.8953 85.59L79.2697 92.394L76.8394 91.908L74.8953 94.824L72.465 87.534ZM28.7206 42.822L25.3183 67.122C25.6423 67.77 26.7764 69.066 28.7206 69.066C30.6648 69.066 31.7989 68.094 32.123 67.608L28.7206 42.822ZM51.0789 48.654L96.3446 26.784L51.0789 5.40002L5.40002 26.784L27.7044 37.476L45.2463 27.756C44.9223 27.108 45.0519 25.4232 48.1626 23.868C52.051 21.924 54.4812 24.354 55.4533 25.326C56.4254 26.298 55.9394 28.242 53.9952 29.7C52.4398 30.8664 49.7827 30.186 48.6486 29.7L31.6369 39.3566L51.0789 48.654ZM18.3922 95.7961C17.3338 92.4924 18.2268 83.811 24.6476 83.16C31.0684 82.5091 35.1906 88.7729 35.2338 92.8364C35.2769 96.8999 34.9041 99.148 29.359 99.198C23.8139 99.248 23.2041 94.2508 23.2041 92.8364C23.2041 91.422 24.1664 88.9747 26.0912 88.992C28.0159 89.0094 29.9407 91.908 29.9407 92.8364L32.8278 91.422C32.8278 89.8262 29.9407 85.104 25.61 85.104C21.2793 85.104 19.4197 89.5561 19.3546 92.8364C19.2895 96.1167 22.1412 102.6 28.9783 102.6C35.8155 102.6 39.5645 99.684 39.0833 92.394C38.602 85.104 33.7901 79.272 24.1664 79.272C14.5427 79.272 13.3951 92.5128 15.0238 97.7396L18.3922 95.7961ZM33.309 93.8516C33.309 95.1476 32.5391 97.7396 29.4595 97.7396C25.61 97.7396 25.0529 93.7652 25.0529 92.8364C25.0529 91.9076 25.61 90.9356 26.5724 90.9356C27.5347 90.9356 28.9783 92.8796 29.4595 94.8236L33.309 93.8516Z" stroke="black" stroke-linejoin="round"/>
</svg>
